{"title":"Regression 2015 BRRip x264 AAC-SSN","uid":13297050,"size":1283570047,"categoryP":"video","categoryS":"movies","magnet":"?xt=urn:btih:c4c3f77562fa11fae507693da5ecb9cda2b0b4a3&amp;dn=Regression+2015+BRRip+x264+AAC-SSN&amp;tr=udp%3A%2F%2Ftracker.leechers-paradise.org%3A6969&amp;tr=udp%3A%2F%2Fzer0day.ch%3A1337&amp;tr=udp%3A%2F%2Fopen.demonii.com%3A1337&amp;tr=udp%3A%2F%2Ftracker.coppersurfer.tk%3A6969&amp;tr=udp%3A%2F%2Fexodus.desync.com%3A6969","seeders":1,"leechers":0,"uploader":"somespirit","files":2,"time":1453652323,"description":"IMDB:  http://www.imdb.com/title/tt3319920/\r\n\r\nSource: Regression.2015.LIMITED.720p.BluRay.X264-AMIABLE\r\n\r\n\r\nGeneral\r\nComplete name                            : Regression 2015 BRRip x264 AAC-SSN.mkv\r\nFormat                                   : Matroska\r\nFormat version                           : Version 4 / Version 2\r\nFile size                                : 1.20 GiB\r\nDuration                                 : 1h 46mn\r\nOverall bit rate                         : 1 613 Kbps\r\nEncoded date                             : UTC 2016-01-24 14:58:22\r\nWriting application                      : mkvmerge v8.6.1 ('Flying') 64bit\r\nWriting library                          : libebml v1.3.3 + libmatroska v1.4.4\r\n\r\nVideo\r\nID                                       : 1\r\nFormat                                   : AVC\r\nFormat/Info                              : Advanced Video Codec\r\nFormat profile                           :   \r\nFormat settings, CABAC                   : Yes\r\nFormat settings, ReFrames                : 5 frames\r\nCodec ID                                 : V_MPEG4/ISO/AVC\r\nDuration                                 : 1h 46mn\r\nBit rate                                 : 1 282 Kbps\r\nWidth                                    : 900 pixels\r\nHeight                                   : 376 pixels\r\nDisplay aspect ratio                     : 2.40:1\r\nFrame rate mode                          : Constant\r\nFrame rate                               : 23.976 (24000/1001) fps\r\nColor space                              : YUV\r\nChroma subsampling                       : 4:2:0\r\nBit depth                                : 8 bits\r\nScan type                                : Progressive\r\nBits/(Pixel*Frame)                       : 0.190\r\nStream size                              : 973 MiB (79%)\r\nWriting library                          : x264 core 148 r2665 a01e339\r\nLanguage                                 : English\r\nDefault                                  : Yes\r\nForced                                   : No\r\n\r\nAudio\r\nID                                       : 2\r\nFormat                                   : AAC\r\nFormat/Info                              : Advanced Audio Codec\r\nFormat profile                           : LC\r\nCodec ID                                 : A_AAC\r\nDuration                                 : 1h 46mn\r\nBit rate                                 : 329 Kbps\r\nChannel(s)                               : 6 channels\r\nChannel positions                        : Front: L C R, Side: L R, LFE\r\nSampling rate                            : 32.0 KHz\r\nFrame rate                               : 31.250 fps (1024 spf)\r\nCompression mode                         : Lossy\r\nStream size                              : 250 MiB (20%)\r\nLanguage                                 : English\r\nDefault                                  : Yes\r\nForced                                   : No\r\n\r\n \nhttp://lookpic.com/O/i2/941/ioXZ3ggK.png\r\n \nhttp://lookpic.com/O/i2/1967/q8gHKG0t.png\r\n \nhttp://lookpic.com/O/i2/388/siBkumER.png","torrent":{"xt":"urn:btih:c4c3f77562fa11fae507693da5ecb9cda2b0b4a3","amp;dn":"Regression+2015+BRRip+x264+AAC-SSN","amp;tr":["udp%3A%2F%2Ftracker.leechers-paradise.org%3A6969","udp%3A%2F%2Fzer0day.ch%3A1337","udp%3A%2F%2Fopen.demonii.com%3A1337","udp%3A%2F%2Ftracker.coppersurfer.tk%3A6969","udp%3A%2F%2Fexodus.desync.com%3A6969"],"infoHash":"c4c3f77562fa11fae507693da5ecb9cda2b0b4a3","infoHashBuffer":{"type":"Buffer","data":[196,195,247,117,98,250,17,250,229,7,105,61,165,236,185,205,162,176,180,163]},"announce":[],"urlList":[]}}